# xmcd CD database file
#
# Track frame offsets:
#	150
#	11663
#	27940
#	38835
#	54755
#	69540
#	83780
#	117580
#	134643
#	153065
#	166580
#	190778
#	203993
#	225453
#	236679
#	268593
#	287155
#	302430
#	315203
#
# Disc length: 4309 seconds
#
# Revision: 3
# Processed by: cddbd v1.5.2PL0 Copyright (c) Steve Scherf et al.
# Submitted via: CDex 1.70beta2
#
DISCID=f110d313
DTITLE=Irish Folk - Various Artists - St. Patrick´s Day Celebration-Murphy's Irish Stout
DYEAR=1999
DGENRE=Irish Folk
TTITLE0=Mari-Mac /Great Big Sea - Track 01
TTITLE1=The Curlew/McDermott's Reel/The Scones of Boxty - Track 02
TTITLE2=Mary, Mary - Goats Don't Shave - Track 03
TTITLE3=Gently Tied up - In search of the Rose - Track 04
TTITLE4=Rattlin' Roarin' Willie - Garifin - Track 05
TTITLE5=Lukey - Great Big Sea - Track 06
TTITLE6=Step it out Mary - Midnight Court - Track 07
TTITLE7=Las Vegas (In the Hills of Donegal) - Goats don't shave - Track 08
TTITLE8=Arthur McBride - Our Whacking Shillelaghs - The Whacking Shillalaghs - Track 09
TTITLE9=Lament - Falk-A. Eckhardt - Track 10
TTITLE10=Miners Live - Garifin - Track 11
TTITLE11=McAlpine's Fusiliers - Mahones - Track 12
TTITLE12=Arranmore - Goats don't Shave - Track 13
TTITLE13=The old Black Rum - Great Big Sea - Track 14
TTITLE14=Floggin Bird - Garifin - Track 15
TTITLE15=Contrversaial - Tom O Dowd's - the Burren-Reels - Midnight Court - Track 16
TTITLE16=Victoria - Jamie Clarke's Perfect - Track 17
TTITLE17=Run Runaway - Great Big Sea - Track 18
TTITLE18=Sugerpath - In search of a Rose - Track 19
EXTD=YEAR: 1999
EXTT0=
EXTT1=
EXTT2=
EXTT3=
EXTT4=
EXTT5=
EXTT6=
EXTT7=
EXTT8=
EXTT9=
EXTT10=
EXTT11=
EXTT12=
EXTT13=
EXTT14=
EXTT15=
EXTT16=
EXTT17=
EXTT18=
PLAYORDER=
